<svg id="Layer_1" height="512" viewBox="0 0 409 409" width="512" xmlns="http://www.w3.org/2000/svg" data-name="Layer 1"><path d="m409 204.49v2.69c0 1.69-.06 3.38-.12 5.06v.39c0 .85-.07 1.7-.11 2.55a204.52 204.52 0 0 1 -198.37 193.73h-.08q-2.9.09-5.82.09c-112.94 0-204.5-91.56-204.5-204.5a204.51 204.51 0 0 1 204.5-204.5q2.92 0 5.82.09a204.51 204.51 0 0 1 198.53 196.5c.07 1.75.11 3.5.13 5.26.02.88.02 1.76.02 2.64z" fill="#07ba39"/><g fill-rule="evenodd"><path d="m244 198.16c5-5.92 6.75-10.81 6.75-22 0-16.48-11.72-32.77-29.69-32.77h-46.12c-5.85 0-7.6 3.37-7.6 7.68v95.08c0 6.24 3.29 8.92 9 8.92h46.4c14.84 0 30.93-13.2 30.93-33.76-.02-11.04-3.83-17.76-9.67-23.15zm-55.13-33.46h30.82a9.57 9.57 0 0 1 9.54 9.53v4.52a9.56 9.56 0 0 1 -9.54 9.52h-30.82zm42.62 59.5a9.55 9.55 0 0 1 -9.52 9.53h-33.1v-23.58h33.13a9.56 9.56 0 0 1 9.52 9.54zm12.53-26c5-5.92 6.75-10.81 6.75-22 0-16.48-11.72-32.77-29.69-32.77h-46.14c-5.85 0-7.6 3.37-7.6 7.68v95.08c0 6.24 3.29 8.92 9 8.92h46.4c14.84 0 30.93-13.2 30.93-33.76-.02-11.08-3.83-17.8-9.67-23.19zm-55.15-33.5h30.82a9.57 9.57 0 0 1 9.54 9.53v4.52a9.56 9.56 0 0 1 -9.54 9.52h-30.82zm42.62 59.5a9.55 9.55 0 0 1 -9.52 9.53h-33.1v-23.58h33.13a9.56 9.56 0 0 1 9.52 9.54zm12.53-26c5-5.92 6.75-10.81 6.75-22 0-16.48-11.72-32.77-29.69-32.77h-46.14c-5.85 0-7.6 3.37-7.6 7.68v95.08c0 6.24 3.29 8.92 9 8.92h46.4c14.84 0 30.93-13.2 30.93-33.76-.02-11.08-3.83-17.8-9.67-23.19zm-55.15-33.5h30.82a9.57 9.57 0 0 1 9.54 9.53v4.52a9.56 9.56 0 0 1 -9.54 9.52h-30.82zm42.62 59.5a9.55 9.55 0 0 1 -9.52 9.53h-33.1v-23.58h33.13a9.56 9.56 0 0 1 9.52 9.54zm12.53-26c5-5.92 6.75-10.81 6.75-22 0-16.48-11.72-32.77-29.69-32.77h-46.14c-5.85 0-7.6 3.37-7.6 7.68v95.08c0 6.24 3.29 8.92 9 8.92h46.4c14.84 0 30.93-13.2 30.93-33.76-.02-11.08-3.83-17.8-9.67-23.19zm-55.15-33.5h30.82a9.57 9.57 0 0 1 9.54 9.53v4.52a9.56 9.56 0 0 1 -9.54 9.52h-30.82zm42.62 59.5a9.55 9.55 0 0 1 -9.52 9.53h-33.1v-23.58h33.13a9.56 9.56 0 0 1 9.52 9.54zm-21.17-146.68c-1.13 0-2.27 0-3.41 0h-.35a118.86 118.86 0 0 0 -101.42 180.2l-20.61 63.42 64.87-20.84a118.27 118.27 0 0 0 57.16 14.82h.35c1.14 0 2.28 0 3.41-.05a118.82 118.82 0 0 0 0-237.55zm0 218.22c-1.25.06-2.5.08-3.76.08a98.73 98.73 0 0 1 -54.76-16.48l-37.38 12.14 12.22-36.09a99.2 99.2 0 0 1 79.92-158c1.26 0 2.51 0 3.76.08a99.19 99.19 0 0 1 0 198.24zm33.68-97.58c5-5.92 6.75-10.81 6.75-22 0-16.48-11.72-32.77-29.69-32.77h-46.12c-5.85 0-7.6 3.37-7.6 7.68v95.08c0 6.24 3.29 8.92 9 8.92h46.4c14.84 0 30.93-13.2 30.93-33.76-.02-11.04-3.83-17.76-9.67-23.15zm-55.13-33.46h30.82a9.57 9.57 0 0 1 9.54 9.53v4.52a9.56 9.56 0 0 1 -9.54 9.52h-30.82zm42.62 59.5a9.55 9.55 0 0 1 -9.52 9.53h-33.1v-23.58h33.13a9.56 9.56 0 0 1 9.52 9.54zm12.53-26c5-5.92 6.75-10.81 6.75-22 0-16.48-11.72-32.77-29.69-32.77h-46.14c-5.85 0-7.6 3.37-7.6 7.68v95.08c0 6.24 3.29 8.92 9 8.92h46.4c14.84 0 30.93-13.2 30.93-33.76-.02-11.08-3.83-17.8-9.67-23.19zm-55.15-33.5h30.82a9.57 9.57 0 0 1 9.54 9.53v4.52a9.56 9.56 0 0 1 -9.54 9.52h-30.82zm42.62 59.5a9.55 9.55 0 0 1 -9.52 9.53h-33.1v-23.58h33.13a9.56 9.56 0 0 1 9.52 9.54zm12.53-26c5-5.92 6.75-10.81 6.75-22 0-16.48-11.72-32.77-29.69-32.77h-46.14c-5.85 0-7.6 3.37-7.6 7.68v95.08c0 6.24 3.29 8.92 9 8.92h46.4c14.84 0 30.93-13.2 30.93-33.76-.02-11.08-3.83-17.8-9.67-23.19zm-55.15-33.5h30.82a9.57 9.57 0 0 1 9.54 9.53v4.52a9.56 9.56 0 0 1 -9.54 9.52h-30.82zm42.62 59.5a9.55 9.55 0 0 1 -9.52 9.53h-33.1v-23.58h33.13a9.56 9.56 0 0 1 9.52 9.54z" fill="#fff"/><path d="m409 204.49v2.69c0 1.69-.06 3.38-.12 5.06v.39c0 .85-.07 1.7-.11 2.55a204.52 204.52 0 0 1 -198.37 193.73h-.08v-408.82a204.51 204.51 0 0 1 198.53 196.5c.07 1.75.11 3.5.13 5.26.02.88.02 1.76.02 2.64z" opacity=".17"/></g></svg>